<svg xmlns="http://www.w3.org/2000/svg" width="12" height="7" viewBox="0 0 93 53" style="image-rendering:optimizeQuality;shape-rendering:geometricPrecision;text-rendering:geometricPrecision"><defs><style type="text/css">  
    .fil0 {fill:#FEFEFE}
   </style></defs><path class="fil0" d="M40 1c6-3 5 1 3 4-7 9-27 31-25 38 2 6 11 8 30 1 15-5 24-15 25-19 1-4-6-5-14-3-7 2-15 5-16 6-11 5-16 9-13 3 1-3 0-3 5-5 5-2 19-8 21-11 2-3 1-3-7 0-6 2-10 4-13 6-2 1-3 1-1-1 1-1 3-2 6-4 5-4 26-15 32-10 1 1 0 4-2 6-3 2-7 5-8 5 0 0 11-3 21-3 5 0 7 2 8 4 3 8-16 18-21 21-6 3-13 6-20 9-4 2-14 4-23 5-11 1-21-1-20-9 0-6 10-17 13-21 2-3 7-8 9-10 0-1 1-1 1-2 0 0-1 0-2 0-3 2-10 5-16 8 0 5-1 10-3 13-4 6-3-3-4-7 0-1 0-1-1-2l0 0c-2 1-10 3-3-2 1-1 2-1 3-2 0-2 1-4 2-6 3-4 4-2 5 2 8-4 17-9 27-13zm42 39c5 0 1 3 1 6 0 3-1 5-4 5-7 0-2-11 3-11z"/></svg>